<?xml version="1.0" standalone="no"?>
<!DOCTYPE svg PUBLIC "-//W3C//DTD SVG 20010904//EN"
 "http://www.w3.org/TR/2001/REC-SVG-20010904/DTD/svg10.dtd">
<svg version="1.0" xmlns="http://www.w3.org/2000/svg"
 width="512.000000pt" height="512.000000pt" viewBox="0 0 512.000000 512.000000"
 preserveAspectRatio="xMidYMid meet">

<g transform="translate(0.000000,512.000000) scale(0.100000,-0.100000)"
fill="#000000" stroke="none">
<path d="M3445 5111 c-92 -24 -173 -90 -215 -176 -34 -69 -35 -198 -2 -265 34
-71 75 -114 144 -151 58 -31 70 -34 148 -33 72 0 93 4 136 26 75 40 107 70
145 140 31 58 34 70 34 148 0 78 -3 90 -34 148 -57 104 -144 160 -260 167 -36
2 -79 1 -96 -4z"/>
<path d="M4180 4256 c-30 -6 -77 -22 -105 -36 -68 -33 -160 -126 -191 -195
-78 -170 -46 -355 83 -484 166 -165 420 -169 588 -10 92 87 135 185 135 309 0
123 -43 222 -133 308 -65 61 -119 89 -206 108 -78 16 -98 16 -171 0z m155
-340 c97 -97 -34 -239 -136 -148 -25 23 -32 36 -33 71 -1 36 4 47 32 72 43 38
102 40 137 5z"/>
<path d="M2752 4033 c-47 -23 -75 -67 -80 -128 -5 -65 9 -92 87 -170 l61 -60
-1099 -1100 c-1183 -1184 -1164 -1164 -1230 -1333 -49 -128 -64 -227 -58 -377
4 -104 10 -147 32 -215 101 -314 331 -537 643 -622 115 -31 335 -31 451 0 97
27 224 85 296 136 27 20 544 530 1147 1133 l1097 1097 74 -71 c79 -77 113 -92
184 -78 49 9 109 69 118 118 18 94 60 46 -778 885 -425 425 -784 780 -799 788
-36 19 -105 18 -146 -3z m893 -1644 c-209 -209 -239 -235 -325 -284 -113 -64
-168 -79 -260 -73 -59 5 -81 12 -162 57 -229 127 -333 159 -489 148 -117 -9
-188 -33 -339 -116 -71 -39 -149 -75 -174 -82 -55 -14 -159 -8 -204 12 l-32
14 360 360 360 360 102 -102 c131 -129 173 -146 258 -103 68 35 100 107 79
183 -9 33 -33 64 -112 145 l-101 103 219 219 220 220 415 -415 415 -415 -230
-231z m-1076 -496 c25 -9 87 -40 138 -70 104 -60 124 -69 206 -92 l57 -17
-642 -640 c-583 -581 -650 -644 -713 -676 -103 -53 -175 -71 -285 -71 -268 1
-493 176 -560 438 -36 139 -23 257 41 395 39 82 48 92 328 374 l289 289 55
-31 c122 -69 270 -99 406 -82 107 14 175 39 316 117 167 93 248 108 364 66z"/>
<path d="M1856 1486 c-52 -19 -86 -45 -114 -86 -97 -143 4 -334 178 -334 228
0 297 305 93 408 -47 24 -112 29 -157 12z"/>
<path d="M1200 1054 c-19 -8 -52 -32 -73 -52 -135 -131 -37 -362 153 -362 106
0 199 79 214 182 24 159 -148 295 -294 232z"/>
</g>
</svg>
